<svg xmlns="http://www.w3.org/2000/svg" xmlns:xlink="http://www.w3.org/1999/xlink" width="500" zoomAndPan="magnify" viewBox="0 0 375 374.999991" height="500" preserveAspectRatio="xMidYMid meet" version="1.2"><defs/><g id="ac469f1988"><rect x="0" width="375" y="0" height="374.999991" style="fill:#ffffff;fill-opacity:1;stroke:none;"/><rect x="0" width="375" y="0" height="374.999991" style="fill:#000000;fill-opacity:1;stroke:none;"/><g style="fill:#ffffff;fill-opacity:1;"><g transform="translate(92.318413, 223.891486)"><path style="stroke:none" d="M 23.265625 21.578125 C 18.878906 24.835938 15 26.46875 11.625 26.46875 C 8.925781 26.46875 6.734375 25.539062 5.046875 23.6875 C 3.367188 21.832031 2.050781 19.441406 1.09375 16.515625 C 0.132812 13.597656 -0.566406 10.507812 -1.015625 7.25 C -1.460938 3.988281 -1.738281 0.925781 -1.84375 -1.9375 C -1.957031 -4.800781 -2.015625 -7.078125 -2.015625 -8.765625 C -2.128906 -16.066406 -1.90625 -23.929688 -1.34375 -32.359375 C -0.78125 -40.785156 0.171875 -49.269531 1.515625 -57.8125 C 3.203125 -68.375 5.394531 -78.628906 8.09375 -88.578125 C 10.789062 -98.523438 13.960938 -107.488281 17.609375 -115.46875 C 21.265625 -123.445312 25.335938 -129.765625 29.828125 -134.421875 C 34.328125 -139.085938 39.160156 -141.421875 44.328125 -141.421875 C 47.703125 -141.421875 50.507812 -140.128906 52.75 -137.546875 C 55 -134.960938 56.207031 -131.113281 56.375 -126 C 56.550781 -120.882812 55.289062 -114.503906 52.59375 -106.859375 C 49.894531 -99.222656 45.34375 -90.40625 38.9375 -80.40625 C 32.53125 -70.40625 23.820312 -59.222656 12.8125 -46.859375 C 12.019531 -43.378906 11.035156 -38.378906 9.859375 -31.859375 C 8.679688 -25.335938 7.753906 -18.59375 7.078125 -11.625 C 6.859375 -9.71875 6.609375 -7.050781 6.328125 -3.625 C 6.046875 -0.195312 5.957031 3.394531 6.0625 7.15625 C 6.175781 10.925781 6.65625 14.242188 7.5 17.109375 C 8.34375 19.972656 9.773438 21.878906 11.796875 22.828125 C 13.816406 23.785156 16.628906 23.085938 20.234375 20.734375 C 23.148438 18.828125 26.347656 15.820312 29.828125 11.71875 C 33.316406 7.613281 36.882812 3.035156 40.53125 -2.015625 C 44.1875 -7.078125 47.695312 -12.164062 51.0625 -17.28125 C 54.4375 -22.394531 57.441406 -26.972656 60.078125 -31.015625 C 62.722656 -35.054688 64.78125 -37.976562 66.25 -39.78125 C 66.582031 -40.113281 67.140625 -40.28125 67.921875 -40.28125 C 68.710938 -40.28125 69.109375 -40.054688 69.109375 -39.609375 C 67.203125 -37.140625 64.898438 -33.851562 62.203125 -29.75 C 59.503906 -25.644531 56.550781 -21.117188 53.34375 -16.171875 C 50.144531 -11.234375 46.800781 -6.289062 43.3125 -1.34375 C 39.832031 3.59375 36.378906 8.082031 32.953125 12.125 C 29.523438 16.175781 26.296875 19.328125 23.265625 21.578125 Z M 13.3125 -51.25 C 23.425781 -63.269531 31.429688 -74.054688 37.328125 -83.609375 C 43.234375 -93.160156 47.445312 -101.445312 49.96875 -108.46875 C 52.5 -115.488281 53.707031 -121.300781 53.59375 -125.90625 C 53.488281 -130.519531 52.507812 -133.894531 50.65625 -136.03125 C 48.800781 -138.164062 46.410156 -139.117188 43.484375 -138.890625 C 41.015625 -138.554688 38.539062 -136.535156 36.0625 -132.828125 C 33.59375 -129.117188 31.175781 -124.285156 28.8125 -118.328125 C 26.457031 -112.367188 24.269531 -105.65625 22.25 -98.1875 C 20.226562 -90.71875 18.457031 -82.9375 16.9375 -74.84375 C 15.425781 -66.75 14.21875 -58.882812 13.3125 -51.25 Z M 13.3125 -51.25 "/></g></g><g style="fill:#ffffff;fill-opacity:1;"><g transform="translate(157.89094, 223.891486)"><path style="stroke:none" d="M 76.1875 2.359375 C 76.070312 7.191406 77.613281 10.476562 80.8125 12.21875 C 84.019531 13.957031 88.039062 13.253906 92.875 10.109375 C 95.800781 8.203125 98.890625 5.5625 102.140625 2.1875 C 105.398438 -1.175781 108.660156 -4.878906 111.921875 -8.921875 C 115.179688 -12.972656 118.328125 -16.992188 121.359375 -20.984375 C 124.398438 -24.972656 127.097656 -28.648438 129.453125 -32.015625 C 131.816406 -35.390625 133.726562 -37.976562 135.1875 -39.78125 C 135.519531 -40.113281 136.078125 -40.28125 136.859375 -40.28125 C 137.648438 -40.28125 138.046875 -40.054688 138.046875 -39.609375 C 135.691406 -36.578125 132.910156 -32.785156 129.703125 -28.234375 C 126.503906 -23.679688 123.019531 -18.929688 119.25 -13.984375 C 115.488281 -9.046875 111.613281 -4.359375 107.625 0.078125 C 103.632812 4.523438 99.726562 8.148438 95.90625 10.953125 C 92.425781 13.648438 88.800781 15.164062 85.03125 15.5 C 81.269531 15.84375 77.984375 14.945312 75.171875 12.8125 C 72.367188 10.675781 70.515625 7.25 69.609375 2.53125 C 68.828125 -2.1875 68.859375 -7.382812 69.703125 -13.0625 C 70.546875 -18.738281 71.804688 -24.441406 73.484375 -30.171875 C 75.171875 -35.898438 76.859375 -41.148438 78.546875 -45.921875 C 80.234375 -50.703125 81.523438 -54.640625 82.421875 -57.734375 C 83.328125 -60.828125 83.382812 -62.484375 82.59375 -62.703125 C 80.125 -62.929688 77.484375 -61.78125 74.671875 -59.25 C 71.859375 -56.71875 69.019531 -53.257812 66.15625 -48.875 C 63.289062 -44.5 60.484375 -39.695312 57.734375 -34.46875 C 54.984375 -29.25 52.3125 -24.023438 49.71875 -18.796875 C 47.132812 -13.566406 44.722656 -8.816406 42.484375 -4.546875 C 40.910156 -2.640625 39.164062 -2.019531 37.25 -2.6875 C 35.34375 -3.363281 34.273438 -5.050781 34.046875 -7.75 C 33.710938 -11.007812 33.851562 -14.972656 34.46875 -19.640625 C 35.082031 -24.304688 35.867188 -29.164062 36.828125 -34.21875 C 37.785156 -39.269531 38.6875 -43.988281 39.53125 -48.375 C 40.375 -52.757812 40.90625 -56.351562 41.125 -59.15625 C 41.351562 -61.96875 41.019531 -63.375 40.125 -63.375 C 34.382812 -63.488281 28.707031 -57.503906 23.09375 -45.421875 C 17.476562 -33.347656 10.789062 -14.441406 3.03125 11.296875 C 2.695312 12.753906 1.632812 13.988281 -0.15625 15 C -1.957031 16.007812 -3.644531 16.398438 -5.21875 16.171875 C -6.789062 15.953125 -7.523438 14.71875 -7.421875 12.46875 C -7.078125 7.976562 -6.597656 3.316406 -5.984375 -1.515625 C -5.367188 -6.347656 -4.582031 -11.878906 -3.625 -18.109375 C -2.664062 -24.347656 -1.515625 -31.851562 -0.171875 -40.625 C 0.0546875 -42.195312 0.816406 -43.488281 2.109375 -44.5 C 3.398438 -45.507812 4.800781 -46.210938 6.3125 -46.609375 C 7.832031 -47.003906 9.125 -46.890625 10.1875 -46.265625 C 11.257812 -45.648438 11.738281 -44.390625 11.625 -42.484375 C 10.613281 -38.097656 9.800781 -34.382812 9.1875 -31.34375 C 8.570312 -28.3125 8.035156 -25.503906 7.578125 -22.921875 C 7.128906 -20.335938 6.679688 -17.613281 6.234375 -14.75 C 5.785156 -11.882812 5.222656 -8.484375 4.546875 -4.546875 C 8.929688 -17.359375 12.835938 -28.257812 16.265625 -37.25 C 19.691406 -46.238281 23.285156 -53.148438 27.046875 -57.984375 C 30.816406 -62.816406 35.226562 -65.347656 40.28125 -65.578125 C 44.550781 -65.234375 47.445312 -63.375 48.96875 -60 C 50.488281 -56.632812 50.992188 -52.222656 50.484375 -46.765625 C 49.972656 -41.316406 48.90625 -35.332031 47.28125 -28.8125 C 45.65625 -22.300781 43.882812 -15.734375 41.96875 -9.109375 C 43.425781 -11.691406 45.195312 -15.171875 47.28125 -19.546875 C 49.363281 -23.929688 51.695312 -28.648438 54.28125 -33.703125 C 56.863281 -38.765625 59.644531 -43.625 62.625 -48.28125 C 65.601562 -52.945312 68.664062 -56.828125 71.8125 -59.921875 C 74.957031 -63.015625 78.160156 -64.726562 81.421875 -65.0625 C 82.648438 -65.175781 84.160156 -64.867188 85.953125 -64.140625 C 87.753906 -63.410156 89.21875 -61.890625 90.34375 -59.578125 C 91.46875 -57.273438 91.523438 -53.820312 90.515625 -49.21875 C 89.390625 -43.820312 87.703125 -38.117188 85.453125 -32.109375 C 83.210938 -26.097656 81.132812 -20.113281 79.21875 -14.15625 C 77.3125 -8.195312 76.300781 -2.691406 76.1875 2.359375 Z M 76.1875 2.359375 "/></g></g></g></svg>