<svg xmlns="http://www.w3.org/2000/svg" xmlns:xlink="http://www.w3.org/1999/xlink" width="1200" zoomAndPan="magnify" viewBox="0 0 900 419.999985" height="560" preserveAspectRatio="xMidYMid meet" version="1.2"><defs><clipPath id="d0e47aecda"><path d="M 100 168 L 388 168 L 388 213 L 100 213 Z M 100 168 "/></clipPath><clipPath id="682605f403"><path d="M 147.023438 83.121094 L 387.804688 175.792969 L 339.042969 302.484375 L 98.261719 209.808594 Z M 147.023438 83.121094 "/></clipPath><clipPath id="84cffcd2f7"><path d="M 147.023438 83.121094 L 387.804688 175.792969 L 339.042969 302.484375 L 98.261719 209.808594 Z M 147.023438 83.121094 "/></clipPath><clipPath id="504d271e01"><path d="M 147.011719 83.15625 L 387.171875 175.59375 L 338.4375 302.210938 L 98.277344 209.773438 Z M 147.011719 83.15625 "/></clipPath><clipPath id="45bd69c5c0"><path d="M 547 152 L 835 152 L 835 196 L 547 196 Z M 547 152 "/></clipPath><clipPath id="b88e19fc58"><path d="M 784.917969 281.253906 L 547 181.460938 L 599.503906 56.277344 L 837.425781 156.070312 Z M 784.917969 281.253906 "/></clipPath><clipPath id="b9a42673d6"><path d="M 784.917969 281.253906 L 547 181.460938 L 599.503906 56.277344 L 837.425781 156.070312 Z M 784.917969 281.253906 "/></clipPath><clipPath id="b6ffc027d7"><path d="M 784.933594 281.21875 L 547.625 181.683594 L 600.101562 56.570312 L 837.410156 156.105469 Z M 784.933594 281.21875 "/></clipPath></defs><g id="54305c9adf"><g clip-rule="nonzero" clip-path="url(#d0e47aecda)"><g clip-rule="nonzero" clip-path="url(#682605f403)"><g clip-rule="nonzero" clip-path="url(#84cffcd2f7)"><g clip-rule="nonzero" clip-path="url(#504d271e01)"><path style=" stroke:none;fill-rule:nonzero;fill:#ffffff;fill-opacity:1;" d="M 381.121094 177.84375 C 346.039062 192.488281 304.835938 185.570312 267.308594 178.675781 C 225.664062 171.023438 167.324219 160.324219 127.886719 176.957031 C 117.03125 181.535156 106.617188 188.527344 102.246094 199.46875 C 100.421875 204.03125 100.3125 206.976562 101.859375 209.789062 C 103.511719 212.785156 108.375 213.789062 109.308594 211.324219 C 109.621094 210.507812 109.359375 210.0625 107.894531 208.898438 C 105.664062 207.132812 105.203125 205.488281 105.894531 201.738281 C 106.972656 195.894531 111.925781 189.28125 118.9375 184.328125 C 135.863281 172.375 163.960938 167.488281 200.226562 170.179688 C 250.558594 173.921875 291.6875 188.40625 336.058594 187.6875 C 353.433594 187.40625 366.390625 185.179688 377.539062 180.566406 C 382.203125 178.636719 387.339844 175.980469 387.15625 175.589844 C 387.046875 175.367188 381.164062 177.859375 381.121094 177.84375 "/></g></g></g></g><g style="fill:#ffffff;fill-opacity:1;"><g transform="translate(387.817136, 220.639945)"><path style="stroke:none" d="M 25.015625 23.203125 C 20.304688 26.710938 16.140625 28.46875 12.515625 28.46875 C 9.609375 28.46875 7.25 27.46875 5.4375 25.46875 C 3.625 23.476562 2.203125 20.910156 1.171875 17.765625 C 0.148438 14.617188 -0.597656 11.289062 -1.078125 7.78125 C -1.566406 4.28125 -1.867188 0.992188 -1.984375 -2.078125 C -2.109375 -5.160156 -2.171875 -7.609375 -2.171875 -9.421875 C -2.296875 -17.285156 -2.054688 -25.75 -1.453125 -34.8125 C -0.847656 -43.875 0.175781 -53 1.625 -62.1875 C 3.4375 -73.550781 5.789062 -84.582031 8.6875 -95.28125 C 11.59375 -105.976562 15.007812 -115.617188 18.9375 -124.203125 C 22.875 -132.785156 27.257812 -139.582031 32.09375 -144.59375 C 36.925781 -149.613281 42.125 -152.125 47.6875 -152.125 C 51.3125 -152.125 54.332031 -150.734375 56.75 -147.953125 C 59.164062 -145.171875 60.460938 -141.03125 60.640625 -135.53125 C 60.828125 -130.03125 59.46875 -123.171875 56.5625 -114.953125 C 53.664062 -106.734375 48.769531 -97.242188 41.875 -86.484375 C 34.988281 -75.722656 25.625 -63.695312 13.78125 -50.40625 C 12.9375 -46.65625 11.878906 -41.273438 10.609375 -34.265625 C 9.335938 -27.253906 8.335938 -20.003906 7.609375 -12.515625 C 7.367188 -10.453125 7.097656 -7.578125 6.796875 -3.890625 C 6.492188 -0.210938 6.398438 3.648438 6.515625 7.703125 C 6.640625 11.753906 7.15625 15.320312 8.0625 18.40625 C 8.96875 21.488281 10.507812 23.539062 12.6875 24.5625 C 14.863281 25.59375 17.882812 24.835938 21.75 22.296875 C 24.894531 20.242188 28.34375 17.007812 32.09375 12.59375 C 35.84375 8.1875 39.679688 3.265625 43.609375 -2.171875 C 47.535156 -7.609375 51.3125 -13.078125 54.9375 -18.578125 C 58.5625 -24.078125 61.796875 -29.003906 64.640625 -33.359375 C 67.484375 -37.710938 69.6875 -40.859375 71.25 -42.796875 C 71.613281 -43.148438 72.21875 -43.328125 73.0625 -43.328125 C 73.914062 -43.328125 74.34375 -43.085938 74.34375 -42.609375 C 72.28125 -39.953125 69.796875 -36.414062 66.890625 -32 C 63.992188 -27.59375 60.820312 -22.726562 57.375 -17.40625 C 53.9375 -12.082031 50.34375 -6.757812 46.59375 -1.4375 C 42.851562 3.875 39.140625 8.703125 35.453125 13.046875 C 31.765625 17.398438 28.285156 20.785156 25.015625 23.203125 Z M 14.328125 -55.125 C 25.203125 -68.050781 33.8125 -79.648438 40.15625 -89.921875 C 46.5 -100.203125 51.03125 -109.117188 53.75 -116.671875 C 56.476562 -124.222656 57.78125 -130.476562 57.65625 -135.4375 C 57.53125 -140.394531 56.472656 -144.019531 54.484375 -146.3125 C 52.492188 -148.613281 49.925781 -149.644531 46.78125 -149.40625 C 44.125 -149.039062 41.460938 -146.863281 38.796875 -142.875 C 36.140625 -138.882812 33.539062 -133.6875 31 -127.28125 C 28.46875 -120.875 26.113281 -113.648438 23.9375 -105.609375 C 21.757812 -97.578125 19.851562 -89.207031 18.21875 -80.5 C 16.59375 -71.800781 15.296875 -63.34375 14.328125 -55.125 Z M 14.328125 -55.125 "/></g></g><g style="fill:#ffffff;fill-opacity:1;"><g transform="translate(458.345073, 220.639945)"><path style="stroke:none" d="M 81.953125 2.53125 C 81.828125 7.726562 83.488281 11.265625 86.9375 13.140625 C 90.382812 15.015625 94.707031 14.257812 99.90625 10.875 C 103.050781 8.820312 106.375 5.984375 109.875 2.359375 C 113.382812 -1.265625 116.890625 -5.253906 120.390625 -9.609375 C 123.898438 -13.960938 127.285156 -18.285156 130.546875 -22.578125 C 133.804688 -26.867188 136.707031 -30.828125 139.25 -34.453125 C 141.789062 -38.078125 143.84375 -40.859375 145.40625 -42.796875 C 145.769531 -43.148438 146.375 -43.328125 147.21875 -43.328125 C 148.070312 -43.328125 148.5 -43.085938 148.5 -42.609375 C 145.957031 -39.347656 142.960938 -35.269531 139.515625 -30.375 C 136.078125 -25.476562 132.332031 -20.367188 128.28125 -15.046875 C 124.226562 -9.734375 120.054688 -4.691406 115.765625 0.078125 C 111.472656 4.859375 107.273438 8.757812 103.171875 11.78125 C 99.421875 14.6875 95.519531 16.316406 91.46875 16.671875 C 87.414062 17.035156 83.878906 16.066406 80.859375 13.765625 C 77.835938 11.472656 75.84375 7.789062 74.875 2.71875 C 74.03125 -2.351562 74.0625 -7.941406 74.96875 -14.046875 C 75.875 -20.148438 77.234375 -26.285156 79.046875 -32.453125 C 80.859375 -38.617188 82.671875 -44.269531 84.484375 -49.40625 C 86.304688 -54.539062 87.695312 -58.769531 88.65625 -62.09375 C 89.625 -65.414062 89.6875 -67.203125 88.84375 -67.453125 C 86.1875 -67.691406 83.34375 -66.453125 80.3125 -63.734375 C 77.289062 -61.015625 74.238281 -57.296875 71.15625 -52.578125 C 68.082031 -47.867188 65.0625 -42.703125 62.09375 -37.078125 C 59.132812 -31.453125 56.265625 -25.828125 53.484375 -20.203125 C 50.703125 -14.585938 48.101562 -9.484375 45.6875 -4.890625 C 44 -2.835938 42.125 -2.171875 40.0625 -2.890625 C 38.007812 -3.617188 36.863281 -5.4375 36.625 -8.34375 C 36.257812 -11.84375 36.410156 -16.097656 37.078125 -21.109375 C 37.742188 -26.128906 38.585938 -31.359375 39.609375 -36.796875 C 40.640625 -42.242188 41.609375 -47.320312 42.515625 -52.03125 C 43.421875 -56.75 43.992188 -60.617188 44.234375 -63.640625 C 44.484375 -66.660156 44.125 -68.171875 43.15625 -68.171875 C 36.988281 -68.296875 30.882812 -61.859375 24.84375 -48.859375 C 18.800781 -35.867188 11.609375 -15.535156 3.265625 12.140625 C 2.898438 13.710938 1.753906 15.039062 -0.171875 16.125 C -2.109375 17.21875 -3.921875 17.644531 -5.609375 17.40625 C -7.304688 17.164062 -8.097656 15.835938 -7.984375 13.421875 C -7.617188 8.585938 -7.101562 3.570312 -6.4375 -1.625 C -5.769531 -6.820312 -4.921875 -12.773438 -3.890625 -19.484375 C -2.867188 -26.191406 -1.632812 -34.265625 -0.1875 -43.703125 C 0.0625 -45.390625 0.878906 -46.773438 2.265625 -47.859375 C 3.648438 -48.953125 5.160156 -49.707031 6.796875 -50.125 C 8.429688 -50.550781 9.820312 -50.429688 10.96875 -49.765625 C 12.113281 -49.097656 12.628906 -47.738281 12.515625 -45.6875 C 11.421875 -40.976562 10.539062 -36.988281 9.875 -33.71875 C 9.21875 -30.457031 8.644531 -27.4375 8.15625 -24.65625 C 7.675781 -21.875 7.191406 -18.941406 6.703125 -15.859375 C 6.222656 -12.773438 5.617188 -9.117188 4.890625 -4.890625 C 9.609375 -18.671875 13.8125 -30.394531 17.5 -40.0625 C 21.1875 -49.738281 25.050781 -57.175781 29.09375 -62.375 C 33.144531 -67.570312 37.890625 -70.289062 43.328125 -70.53125 C 47.921875 -70.164062 51.035156 -68.171875 52.671875 -64.546875 C 54.304688 -60.921875 54.847656 -56.175781 54.296875 -50.3125 C 53.753906 -44.445312 52.609375 -38.007812 50.859375 -31 C 49.109375 -23.988281 47.203125 -16.921875 45.140625 -9.796875 C 46.710938 -12.578125 48.617188 -16.320312 50.859375 -21.03125 C 53.097656 -25.75 55.601562 -30.828125 58.375 -36.265625 C 61.15625 -41.703125 64.144531 -46.925781 67.34375 -51.9375 C 70.550781 -56.957031 73.847656 -61.128906 77.234375 -64.453125 C 80.617188 -67.773438 84.066406 -69.617188 87.578125 -69.984375 C 88.898438 -70.109375 90.53125 -69.773438 92.46875 -68.984375 C 94.40625 -68.203125 95.976562 -66.570312 97.1875 -64.09375 C 98.394531 -61.613281 98.453125 -57.894531 97.359375 -52.9375 C 96.148438 -47.132812 94.335938 -41 91.921875 -34.53125 C 89.503906 -28.070312 87.269531 -21.640625 85.21875 -15.234375 C 83.164062 -8.828125 82.078125 -2.90625 81.953125 2.53125 Z M 81.953125 2.53125 "/></g></g><g style="fill:#ffffff;fill-opacity:1;"><g transform="translate(195.303916, 335.016917)"><path style="stroke:none" d="M 14.859375 -49.78125 C 13.617188 -49.78125 12.679688 -49.421875 12.046875 -48.703125 C 11.410156 -47.984375 11.09375 -46.816406 11.09375 -45.203125 L 11.09375 -0.953125 L 30.34375 -0.953125 C 30.8125 -0.953125 31.488281 -1.023438 32.375 -1.171875 C 33.269531 -1.328125 34.226562 -1.671875 35.25 -2.203125 C 36.269531 -2.734375 37.28125 -3.5 38.28125 -4.5 C 39.28125 -5.5 40.117188 -6.847656 40.796875 -8.546875 L 41.4375 -8.421875 C 41.601562 -8.367188 41.769531 -8.320312 41.9375 -8.28125 C 42.113281 -8.238281 42.285156 -8.195312 42.453125 -8.15625 C 42.160156 -6.882812 41.90625 -5.695312 41.6875 -4.59375 C 41.476562 -3.65625 41.285156 -2.738281 41.109375 -1.84375 C 40.941406 -0.957031 40.816406 -0.34375 40.734375 0 L 3.375 0 L 3.375 -1.140625 C 4.613281 -1.140625 5.5625 -1.507812 6.21875 -2.25 C 6.875 -3 7.203125 -4.179688 7.203125 -5.796875 L 7.203125 -45.203125 C 7.203125 -46.597656 6.914062 -47.707031 6.34375 -48.53125 C 5.769531 -49.363281 4.992188 -49.78125 4.015625 -49.78125 L 3.375 -49.78125 L 3.375 -51 L 14.859375 -51 Z M 14.859375 -49.78125 "/></g></g><g style="fill:#ffffff;fill-opacity:1;"><g transform="translate(248.152096, 335.016917)"><path style="stroke:none" d="M 42.328125 -7.78125 C 41.898438 -5.65625 41.535156 -3.867188 41.234375 -2.421875 C 40.941406 -0.972656 40.773438 -0.164062 40.734375 0 L 3.375 0 L 3.375 -1.21875 C 4.613281 -1.21875 5.5625 -1.578125 6.21875 -2.296875 C 6.875 -3.015625 7.203125 -4.179688 7.203125 -5.796875 L 7.203125 -45.203125 C 7.203125 -46.597656 6.90625 -47.707031 6.3125 -48.53125 C 5.71875 -49.363281 4.929688 -49.78125 3.953125 -49.78125 L 3.375 -49.78125 L 3.375 -51 L 40.296875 -51 C 40.296875 -49.769531 40.335938 -48.460938 40.421875 -47.078125 C 40.503906 -45.691406 40.566406 -44.382812 40.609375 -43.15625 L 39.59375 -43.15625 L 39.140625 -44.25 C 38.296875 -46.03125 36.957031 -47.441406 35.125 -48.484375 C 33.300781 -49.523438 31.304688 -50.046875 29.140625 -50.046875 L 11.03125 -50.046875 L 11.03125 -30.734375 L 26.96875 -30.734375 C 28.875 -30.734375 30.507812 -31.019531 31.875 -31.59375 C 33.238281 -32.164062 34.085938 -32.941406 34.421875 -33.921875 L 34.6875 -34.484375 L 35.703125 -34.484375 L 35.703125 -25.4375 L 34.6875 -25.4375 L 34.421875 -26.078125 C 33.992188 -27.179688 33.109375 -28.070312 31.765625 -28.75 C 30.429688 -29.425781 28.832031 -29.765625 26.96875 -29.765625 L 11.03125 -29.765625 L 11.03125 -0.953125 L 29.703125 -0.953125 C 31.867188 -0.953125 33.941406 -1.472656 35.921875 -2.515625 C 37.898438 -3.554688 39.460938 -4.96875 40.609375 -6.75 L 41.375 -7.78125 Z M 42.328125 -7.78125 "/></g></g><g style="fill:#ffffff;fill-opacity:1;"><g transform="translate(301.701485, 335.016917)"><path style="stroke:none" d="M 46.15625 -0.703125 L 46.15625 0.0625 L 43.921875 0.0625 C 43.160156 0.0625 42.46875 0 41.84375 -0.125 C 41.226562 -0.25 40.601562 -0.503906 39.96875 -0.890625 C 39.332031 -1.273438 38.628906 -1.828125 37.859375 -2.546875 C 37.097656 -3.273438 36.175781 -4.242188 35.09375 -5.453125 C 34.007812 -6.660156 32.710938 -8.144531 31.203125 -9.90625 C 29.691406 -11.675781 27.875 -13.789062 25.75 -16.25 C 25.457031 -16.207031 25.148438 -16.1875 24.828125 -16.1875 C 24.515625 -16.1875 24.1875 -16.1875 23.84375 -16.1875 L 11.40625 -16.1875 L 11.40625 -5.796875 C 11.40625 -4.441406 11.703125 -3.335938 12.296875 -2.484375 C 12.898438 -1.640625 13.6875 -1.21875 14.65625 -1.21875 L 15.296875 -1.21875 L 15.296875 0 L 3.5 0 L 3.5 -1.21875 L 4.078125 -1.21875 C 5.097656 -1.21875 5.90625 -1.640625 6.5 -2.484375 C 7.09375 -3.335938 7.390625 -4.441406 7.390625 -5.796875 L 7.390625 -45.203125 C 7.390625 -46.597656 7.09375 -47.722656 6.5 -48.578125 C 5.90625 -49.429688 5.097656 -49.859375 4.078125 -49.859375 L 3.5 -49.859375 L 3.5 -51 L 26.90625 -51 C 29.363281 -51 31.613281 -50.570312 33.65625 -49.71875 C 35.695312 -48.875 37.441406 -47.6875 38.890625 -46.15625 C 40.335938 -44.625 41.460938 -42.785156 42.265625 -40.640625 C 43.078125 -38.492188 43.484375 -36.125 43.484375 -33.53125 C 43.484375 -31.40625 43.160156 -29.4375 42.515625 -27.625 C 41.878906 -25.820312 40.96875 -24.207031 39.78125 -22.78125 C 38.59375 -21.363281 37.164062 -20.15625 35.5 -19.15625 C 33.84375 -18.15625 31.976562 -17.398438 29.90625 -16.890625 C 33.132812 -13.023438 35.710938 -10.007812 37.640625 -7.84375 C 39.578125 -5.675781 41.085938 -4.0625 42.171875 -3 C 43.253906 -1.9375 44.050781 -1.285156 44.5625 -1.046875 C 45.070312 -0.816406 45.539062 -0.703125 45.96875 -0.703125 Z M 23.84375 -17.15625 C 26.132812 -17.15625 28.222656 -17.546875 30.109375 -18.328125 C 32.003906 -19.109375 33.628906 -20.222656 34.984375 -21.671875 C 36.347656 -23.117188 37.398438 -24.851562 38.140625 -26.875 C 38.890625 -28.894531 39.265625 -31.113281 39.265625 -33.53125 C 39.265625 -36 38.96875 -38.238281 38.375 -40.25 C 37.78125 -42.269531 36.941406 -44.003906 35.859375 -45.453125 C 34.773438 -46.898438 33.46875 -48.023438 31.9375 -48.828125 C 30.40625 -49.640625 28.726562 -50.046875 26.90625 -50.046875 L 11.40625 -50.046875 L 11.40625 -17.15625 Z M 23.84375 -17.15625 "/></g></g><g style="fill:#ffffff;fill-opacity:1;"><g transform="translate(359.075648, 335.016917)"><path style="stroke:none" d="M 11.921875 0 L 1.71875 0 L 1.71875 -1.21875 C 2.90625 -1.21875 3.898438 -1.554688 4.703125 -2.234375 C 5.515625 -2.910156 6.242188 -3.972656 6.890625 -5.421875 L 25.625 -51.0625 L 26.84375 -51.0625 L 26.78125 -51.0625 L 46.28125 -5.734375 C 46.914062 -4.285156 47.644531 -3.171875 48.46875 -2.390625 C 49.300781 -1.609375 50.316406 -1.21875 51.515625 -1.21875 L 51.515625 0 L 39.46875 0 L 39.46875 -1.21875 L 40.21875 -1.21875 C 41.070312 -1.21875 41.734375 -1.4375 42.203125 -1.875 C 42.671875 -2.320312 42.90625 -2.929688 42.90625 -3.703125 C 42.90625 -3.992188 42.875 -4.285156 42.8125 -4.578125 C 42.75 -4.878906 42.640625 -5.234375 42.484375 -5.640625 C 42.335938 -6.046875 42.125 -6.546875 41.84375 -7.140625 C 41.570312 -7.734375 41.242188 -8.5 40.859375 -9.4375 C 38.398438 -9.476562 36.070312 -9.847656 33.875 -10.546875 C 31.6875 -11.253906 29.582031 -12 27.5625 -12.78125 C 25.550781 -13.570312 23.597656 -14.296875 21.703125 -14.953125 C 19.816406 -15.609375 17.9375 -15.9375 16.0625 -15.9375 C 14.664062 -15.9375 13.347656 -15.722656 12.109375 -15.296875 C 11.171875 -13.046875 10.4375 -11.269531 9.90625 -9.96875 C 9.375 -8.675781 8.96875 -7.675781 8.6875 -6.96875 C 8.414062 -6.269531 8.25 -5.75 8.1875 -5.40625 C 8.125 -5.070312 8.09375 -4.710938 8.09375 -4.328125 C 8.09375 -3.359375 8.359375 -2.597656 8.890625 -2.046875 C 9.421875 -1.492188 10.175781 -1.21875 11.15625 -1.21875 L 11.921875 -1.21875 Z M 24.921875 -46.46875 L 12.625 -16.515625 C 13.6875 -16.804688 14.832031 -16.953125 16.0625 -16.953125 C 17.976562 -16.953125 19.878906 -16.632812 21.765625 -16 C 23.660156 -15.363281 25.59375 -14.648438 27.5625 -13.859375 C 29.539062 -13.078125 31.59375 -12.34375 33.71875 -11.65625 C 35.84375 -10.976562 38.078125 -10.597656 40.421875 -10.515625 Z M 24.921875 -46.46875 "/></g></g><g style="fill:#ffffff;fill-opacity:1;"><g transform="translate(420.91207, 335.016917)"><path style="stroke:none" d=""/></g></g><g style="fill:#ffffff;fill-opacity:1;"><g transform="translate(452.405169, 335.016917)"><path style="stroke:none" d="M 35.953125 -4.46875 C 35.441406 -4.082031 34.738281 -3.625 33.84375 -3.09375 C 32.957031 -2.5625 31.820312 -2.039062 30.4375 -1.53125 C 29.0625 -1.019531 27.425781 -0.59375 25.53125 -0.25 C 23.632812 0.0820312 21.457031 0.25 19 0.25 C 16.570312 0.25 14.367188 -0.0546875 12.390625 -0.671875 C 10.421875 -1.285156 8.734375 -2.144531 7.328125 -3.25 C 5.929688 -4.351562 4.835938 -5.679688 4.046875 -7.234375 C 3.265625 -8.785156 2.875 -10.5 2.875 -12.375 C 2.875 -13.894531 3.191406 -15.390625 3.828125 -16.859375 C 4.460938 -18.328125 5.351562 -19.71875 6.5 -21.03125 C 7.644531 -22.351562 9.035156 -23.578125 10.671875 -24.703125 C 12.304688 -25.828125 14.125 -26.796875 16.125 -27.609375 C 14.769531 -29.773438 13.6875 -31.820312 12.875 -33.75 C 12.070312 -35.6875 11.671875 -37.484375 11.671875 -39.140625 C 11.671875 -41.015625 11.9375 -42.703125 12.46875 -44.203125 C 13 -45.710938 13.75 -47.007812 14.71875 -48.09375 C 15.695312 -49.175781 16.878906 -50.015625 18.265625 -50.609375 C 19.648438 -51.210938 21.191406 -51.515625 22.890625 -51.515625 C 26.285156 -51.515625 29.015625 -50.679688 31.078125 -49.015625 C 33.140625 -47.359375 34.171875 -45.128906 34.171875 -42.328125 C 34.171875 -40.671875 33.816406 -39.085938 33.109375 -37.578125 C 32.410156 -36.066406 31.410156 -34.707031 30.109375 -33.5 C 28.816406 -32.289062 27.269531 -31.25 25.46875 -30.375 C 23.664062 -29.5 21.65625 -28.875 19.4375 -28.5 C 20.632812 -26.75 22.070312 -24.800781 23.75 -22.65625 C 25.425781 -20.507812 27.175781 -18.351562 29 -16.1875 C 30.15625 -15 31.453125 -13.648438 32.890625 -12.140625 C 34.335938 -10.628906 35.953125 -8.984375 37.734375 -7.203125 C 39.222656 -8.609375 40.476562 -10.210938 41.5 -12.015625 C 42.519531 -13.816406 43.03125 -15.929688 43.03125 -18.359375 C 43.03125 -20.828125 42.347656 -23.023438 40.984375 -24.953125 C 39.628906 -26.890625 37.570312 -28.304688 34.8125 -29.203125 L 35.0625 -30.09375 C 36.84375 -29.539062 38.359375 -28.816406 39.609375 -27.921875 C 40.867188 -27.023438 41.898438 -26.035156 42.703125 -24.953125 C 43.515625 -23.867188 44.113281 -22.742188 44.5 -21.578125 C 44.882812 -20.410156 45.078125 -19.316406 45.078125 -18.296875 C 45.078125 -16.890625 44.820312 -15.550781 44.3125 -14.28125 C 43.800781 -13.007812 43.179688 -11.863281 42.453125 -10.84375 C 41.734375 -9.820312 41 -8.9375 40.25 -8.1875 C 39.507812 -7.445312 38.925781 -6.882812 38.5 -6.5 C 39.144531 -5.820312 39.734375 -5.226562 40.265625 -4.71875 C 40.796875 -4.207031 41.25 -3.757812 41.625 -3.375 C 42.09375 -2.90625 42.5 -2.523438 42.84375 -2.234375 C 44.15625 -0.992188 45.382812 0.0351562 46.53125 0.859375 C 47.6875 1.691406 48.769531 2.347656 49.78125 2.828125 C 50.800781 3.316406 51.769531 3.65625 52.6875 3.84375 C 53.601562 4.039062 54.507812 4.140625 55.40625 4.140625 C 56.125 4.140625 56.863281 4.078125 57.625 3.953125 L 57.625 4.53125 C 56.945312 4.613281 56.289062 4.6875 55.65625 4.75 C 55.019531 4.8125 54.378906 4.84375 53.734375 4.84375 C 51.703125 4.84375 49.632812 4.46875 47.53125 3.71875 C 45.425781 2.976562 43.140625 1.613281 40.671875 -0.375 Z M 14.34375 -40.734375 C 14.34375 -39.035156 14.773438 -37.207031 15.640625 -35.25 C 16.515625 -33.300781 17.695312 -31.195312 19.1875 -28.9375 C 21.019531 -29.28125 22.6875 -29.851562 24.1875 -30.65625 C 25.695312 -31.46875 26.984375 -32.445312 28.046875 -33.59375 C 29.109375 -34.738281 29.925781 -36.035156 30.5 -37.484375 C 31.070312 -38.929688 31.359375 -40.484375 31.359375 -42.140625 C 31.359375 -44.773438 30.570312 -46.878906 29 -48.453125 C 27.425781 -50.023438 25.320312 -50.8125 22.6875 -50.8125 C 20.144531 -50.8125 18.117188 -49.882812 16.609375 -48.03125 C 15.097656 -46.1875 14.34375 -43.753906 14.34375 -40.734375 Z M 35.25 -5.09375 C 33.164062 -7.007812 31.328125 -8.796875 29.734375 -10.453125 C 28.140625 -12.109375 26.789062 -13.617188 25.6875 -14.984375 C 23.90625 -17.109375 22.195312 -19.222656 20.5625 -21.328125 C 18.925781 -23.429688 17.554688 -25.351562 16.453125 -27.09375 C 13.304688 -25.6875 10.816406 -23.789062 8.984375 -21.40625 C 7.160156 -19.03125 6.25 -16.460938 6.25 -13.703125 C 6.25 -11.835938 6.597656 -10.148438 7.296875 -8.640625 C 7.992188 -7.128906 8.988281 -5.832031 10.28125 -4.75 C 11.582031 -3.664062 13.132812 -2.828125 14.9375 -2.234375 C 16.75 -1.640625 18.757812 -1.34375 20.96875 -1.34375 C 23.90625 -1.34375 26.570312 -1.660156 28.96875 -2.296875 C 31.375 -2.929688 33.445312 -3.84375 35.1875 -5.03125 Z M 35.25 -5.09375 "/></g></g><g style="fill:#ffffff;fill-opacity:1;"><g transform="translate(509.843091, 335.016917)"><path style="stroke:none" d=""/></g></g><g style="fill:#ffffff;fill-opacity:1;"><g transform="translate(541.336189, 335.016917)"><path style="stroke:none" d="M 12.9375 -1.21875 L 12.9375 0 L 2.421875 0 L 2.421875 -1.21875 C 3.566406 -1.21875 4.476562 -1.535156 5.15625 -2.171875 C 5.84375 -2.804688 6.25 -3.847656 6.375 -5.296875 L 7.84375 -45.203125 L 7.78125 -45.203125 C 7.820312 -45.242188 7.84375 -45.328125 7.84375 -45.453125 C 7.84375 -46.816406 7.578125 -47.878906 7.046875 -48.640625 C 6.515625 -49.398438 5.78125 -49.78125 4.84375 -49.78125 L 4.203125 -49.78125 L 4.203125 -51 L 11.09375 -51 L 30.796875 -4.59375 L 49.59375 -51 L 56.796875 -51 L 56.796875 -49.78125 C 55.691406 -49.78125 54.851562 -49.492188 54.28125 -48.921875 C 53.707031 -48.347656 53.378906 -47.382812 53.296875 -46.03125 L 55.078125 -5.796875 C 55.160156 -4.179688 55.53125 -3.015625 56.1875 -2.296875 C 56.851562 -1.578125 57.800781 -1.21875 59.03125 -1.21875 L 59.03125 0 L 47.625 0 L 47.625 -1.21875 L 48.265625 -1.21875 C 49.191406 -1.21875 49.910156 -1.597656 50.421875 -2.359375 C 50.929688 -3.117188 51.1875 -4.179688 51.1875 -5.546875 L 51.1875 -5.796875 C 50.976562 -12.859375 50.734375 -19.882812 50.453125 -26.875 C 50.179688 -33.863281 49.914062 -40.90625 49.65625 -48 L 29.96875 0.375 L 29 0.375 C 25.6875 -7.394531 22.363281 -15.113281 19.03125 -22.78125 C 15.695312 -30.457031 12.367188 -38.1875 9.046875 -45.96875 L 7.59375 -6.0625 C 7.675781 -4.570312 8.109375 -3.390625 8.890625 -2.515625 C 9.679688 -1.648438 10.734375 -1.21875 12.046875 -1.21875 Z M 12.9375 -1.21875 "/></g></g><g style="fill:#ffffff;fill-opacity:1;"><g transform="translate(611.332159, 335.016917)"><path style="stroke:none" d="M 11.921875 0 L 1.71875 0 L 1.71875 -1.21875 C 2.90625 -1.21875 3.898438 -1.554688 4.703125 -2.234375 C 5.515625 -2.910156 6.242188 -3.972656 6.890625 -5.421875 L 25.625 -51.0625 L 26.84375 -51.0625 L 26.78125 -51.0625 L 46.28125 -5.734375 C 46.914062 -4.285156 47.644531 -3.171875 48.46875 -2.390625 C 49.300781 -1.609375 50.316406 -1.21875 51.515625 -1.21875 L 51.515625 0 L 39.46875 0 L 39.46875 -1.21875 L 40.21875 -1.21875 C 41.070312 -1.21875 41.734375 -1.4375 42.203125 -1.875 C 42.671875 -2.320312 42.90625 -2.929688 42.90625 -3.703125 C 42.90625 -3.992188 42.875 -4.285156 42.8125 -4.578125 C 42.75 -4.878906 42.640625 -5.234375 42.484375 -5.640625 C 42.335938 -6.046875 42.125 -6.546875 41.84375 -7.140625 C 41.570312 -7.734375 41.242188 -8.5 40.859375 -9.4375 C 38.398438 -9.476562 36.070312 -9.847656 33.875 -10.546875 C 31.6875 -11.253906 29.582031 -12 27.5625 -12.78125 C 25.550781 -13.570312 23.597656 -14.296875 21.703125 -14.953125 C 19.816406 -15.609375 17.9375 -15.9375 16.0625 -15.9375 C 14.664062 -15.9375 13.347656 -15.722656 12.109375 -15.296875 C 11.171875 -13.046875 10.4375 -11.269531 9.90625 -9.96875 C 9.375 -8.675781 8.96875 -7.675781 8.6875 -6.96875 C 8.414062 -6.269531 8.25 -5.75 8.1875 -5.40625 C 8.125 -5.070312 8.09375 -4.710938 8.09375 -4.328125 C 8.09375 -3.359375 8.359375 -2.597656 8.890625 -2.046875 C 9.421875 -1.492188 10.175781 -1.21875 11.15625 -1.21875 L 11.921875 -1.21875 Z M 24.921875 -46.46875 L 12.625 -16.515625 C 13.6875 -16.804688 14.832031 -16.953125 16.0625 -16.953125 C 17.976562 -16.953125 19.878906 -16.632812 21.765625 -16 C 23.660156 -15.363281 25.59375 -14.648438 27.5625 -13.859375 C 29.539062 -13.078125 31.59375 -12.34375 33.71875 -11.65625 C 35.84375 -10.976562 38.078125 -10.597656 40.421875 -10.515625 Z M 24.921875 -46.46875 "/></g></g><g style="fill:#ffffff;fill-opacity:1;"><g transform="translate(673.16858, 335.016917)"><path style="stroke:none" d="M 42.84375 -5.734375 C 43.988281 -4.242188 45.09375 -3.101562 46.15625 -2.3125 C 47.21875 -1.53125 48.195312 -1.140625 49.09375 -1.140625 L 49.09375 0.0625 L 37.671875 0.0625 L 37.671875 -1.140625 L 38.375 -1.140625 C 39.4375 -1.140625 39.96875 -1.566406 39.96875 -2.421875 C 39.96875 -3.015625 39.648438 -3.820312 39.015625 -4.84375 L 24.421875 -23.96875 L 11.734375 -6.25 C 10.710938 -4.757812 10.203125 -3.566406 10.203125 -2.671875 C 10.203125 -1.648438 10.796875 -1.140625 11.984375 -1.140625 L 12.5 -1.140625 C 12.582031 -1.140625 12.644531 -1.109375 12.6875 -1.046875 C 12.726562 -0.984375 12.75 -0.828125 12.75 -0.578125 L 12.75 0.0625 L 2.546875 0.0625 L 2.546875 -1.140625 C 5.097656 -1.140625 7.476562 -2.671875 9.6875 -5.734375 L 23.78125 -24.859375 L 8.28125 -45.140625 L 8.21875 -45.140625 C 7.03125 -46.617188 5.914062 -47.757812 4.875 -48.5625 C 3.832031 -49.375 2.863281 -49.78125 1.96875 -49.78125 L 1.96875 -50.9375 L 13.328125 -50.9375 L 13.328125 -49.78125 L 12.6875 -49.78125 C 11.582031 -49.78125 11.03125 -49.359375 11.03125 -48.515625 C 11.03125 -47.835938 11.347656 -47.03125 11.984375 -46.09375 L 26.265625 -27.34375 L 39.84375 -45.96875 C 40.351562 -46.851562 40.609375 -47.59375 40.609375 -48.1875 C 40.609375 -49.25 39.925781 -49.78125 38.5625 -49.78125 C 38.476562 -49.78125 38.40625 -49.769531 38.34375 -49.75 C 38.28125 -49.726562 38.207031 -49.71875 38.125 -49.71875 C 37.957031 -49.71875 37.875 -49.929688 37.875 -50.359375 L 37.875 -50.9375 L 48.1875 -50.9375 L 48.1875 -49.78125 C 47.382812 -49.78125 46.640625 -49.664062 45.953125 -49.4375 C 45.273438 -49.207031 44.566406 -48.769531 43.828125 -48.125 C 43.085938 -47.488281 42.257812 -46.617188 41.34375 -45.515625 C 40.425781 -44.410156 39.304688 -43 37.984375 -41.28125 C 36.671875 -39.5625 35.117188 -37.476562 33.328125 -35.03125 C 31.546875 -32.582031 29.425781 -29.722656 26.96875 -26.453125 L 42.78125 -5.734375 Z M 42.84375 -5.734375 "/></g></g><g clip-rule="nonzero" clip-path="url(#45bd69c5c0)"><g clip-rule="nonzero" clip-path="url(#b88e19fc58)"><g clip-rule="nonzero" clip-path="url(#b9a42673d6)"><g clip-rule="nonzero" clip-path="url(#b6ffc027d7)"><path style=" stroke:none;fill-rule:nonzero;fill:#ffffff;fill-opacity:1;" d="M 553.738281 179.613281 C 589.242188 166.015625 630.21875 174.15625 667.527344 182.164062 C 708.925781 191.050781 766.921875 203.476562 806.835938 188.027344 C 817.824219 183.773438 828.4375 177.089844 833.136719 166.285156 C 835.09375 161.78125 835.292969 158.835938 833.828125 155.984375 C 832.265625 152.941406 827.433594 151.792969 826.425781 154.226562 C 826.09375 155.03125 826.339844 155.484375 827.769531 156.691406 C 829.949219 158.523438 830.355469 160.179688 829.554688 163.910156 C 828.304688 169.71875 823.15625 176.183594 816 180.925781 C 798.726562 192.367188 770.496094 196.417969 734.328125 192.648438 C 684.128906 187.414062 643.449219 171.710938 599.074219 171.113281 C 581.699219 170.875 568.683594 172.714844 557.402344 176.996094 C 552.679688 178.785156 547.46875 181.289062 547.640625 181.683594 C 547.742188 181.910156 553.695312 179.59375 553.738281 179.613281 "/></g></g></g></g></g></svg>